<?xml version="1.0" standalone="no"?>
<!DOCTYPE svg PUBLIC "-//W3C//DTD SVG 20010904//EN"
 "http://www.w3.org/TR/2001/REC-SVG-20010904/DTD/svg10.dtd">
<svg version="1.0" xmlns="http://www.w3.org/2000/svg"
 width="500.000000pt" height="500.000000pt" viewBox="0 0 500.000000 500.000000"
 preserveAspectRatio="xMidYMid meet">
<metadata>
Created by potrace 1.14, written by Peter Selinger 2001-2017
</metadata>
<g transform="translate(0.000000,500.000000) scale(0.100000,-0.100000)"
fill="#000000" stroke="none">
<path d="M2285 3889 c-385 -55 -766 -307 -980 -649 -82 -131 -160 -331 -188
-485 -20 -110 -22 -376 -3 -485 60 -341 236 -642 501 -860 159 -131 339 -220
559 -277 93 -25 118 -27 301 -28 110 0 220 3 245 7 222 32 469 143 655 291
240 193 411 457 486 751 30 119 34 155 34 336 0 203 -6 253 -51 406 -148 512
-581 896 -1114 990 -88 15 -348 17 -445 3z m491 -33 c286 -63 568 -225 745
-427 82 -93 150 -191 145 -206 -3 -7 1 -13 8 -13 31 0 131 -232 169 -395 59
-251 53 -472 -20 -715 -31 -103 -43 -131 -54 -124 -5 3 -6 -1 -3 -9 10 -26
-109 -237 -188 -333 -13 -16 -59 -65 -103 -110 -220 -222 -499 -358 -820 -399
-111 -14 -321 -6 -405 15 -19 5 -48 11 -65 14 -113 19 -273 85 -407 167 -363
223 -604 601 -654 1024 -4 33 -7 116 -6 185 1 108 7 164 36 299 13 61 62 194
100 271 210 425 607 709 1081 773 71 10 373 -2 441 -17z"/>
<path d="M2189 3718 c0 -18 -3 -78 -5 -132 -4 -86 -3 -97 10 -87 8 7 13 23 10
35 -3 21 1 25 33 31 37 7 53 -3 66 -39 2 -6 8 -7 13 -3 10 9 -97 219 -115 225
-7 2 -11 -9 -12 -30z m70 -122 c-2 -2 -15 -7 -29 -11 -25 -6 -25 -5 -23 52 0
32 2 60 2 63 1 3 13 -18 28 -47 15 -29 25 -54 22 -57z"/>
<path d="M2815 3683 c-9 -32 -23 -76 -31 -98 -9 -22 -16 -42 -16 -45 0 -3 -3
-11 -6 -18 -7 -19 5 -27 22 -13 7 6 16 29 20 51 7 42 16 49 35 26 9 -11 9 -15
-1 -19 -10 -4 -10 -6 0 -6 6 -1 12 -11 12 -23 0 -41 12 -68 30 -68 9 0 25 -9
35 -20 21 -23 9 -26 -19 -5 -26 19 -33 19 -45 -3 -8 -15 -5 -18 27 -19 20 0
48 -4 62 -7 14 -4 34 -8 45 -9 11 -1 24 -8 28 -15 6 -8 14 -9 26 -3 14 8 21 4
35 -20 9 -16 22 -27 27 -24 5 4 9 1 9 -5 0 -6 5 -8 12 -4 7 4 8 3 4 -4 -4 -6
-14 -8 -23 -5 -11 4 -14 3 -9 -5 4 -7 2 -12 -4 -12 -6 0 -10 8 -8 17 2 10 -1
18 -7 18 -18 2 -65 28 -65 37 0 4 -5 8 -10 8 -7 0 -7 -7 0 -22 9 -18 6 -16
-10 5 -12 15 -26 25 -31 21 -5 -3 -9 -1 -9 3 0 5 -10 9 -22 10 -22 2 -22 1 -4
-13 11 -8 15 -14 9 -14 -7 0 -15 5 -18 10 -4 6 -11 7 -17 4 -7 -4 -8 -2 -4 4
5 8 0 11 -16 8 -13 -2 -31 4 -42 13 -10 9 -20 15 -22 14 -12 -8 -24 -1 -18 10
5 7 0 6 -11 -3 -12 -10 -16 -11 -11 -2 6 9 1 12 -16 11 -43 -4 -79 1 -74 10 6
10 -326 7 -369 -4 -16 -4 -37 -8 -45 -10 -8 -2 -15 -4 -15 -5 0 -1 -7 -3 -15
-5 -36 -7 -153 -56 -207 -86 -137 -76 -277 -207 -349 -327 -28 -47 -34 -51
-43 -35 -6 10 -11 13 -11 7 0 -5 4 -14 9 -20 6 -5 0 -28 -14 -57 -34 -69 -67
-171 -81 -251 -20 -118 -6 -367 26 -451 5 -14 7 -25 5 -25 -3 0 2 -11 10 -24
12 -18 13 -26 4 -32 -8 -5 -9 -3 -4 6 5 9 4 11 -4 6 -16 -10 -4 -26 14 -19 8
3 15 0 15 -7 0 -6 -4 -8 -10 -5 -5 3 -10 1 -10 -6 0 -8 -6 -6 -18 4 -10 10
-22 17 -26 17 -4 0 6 -11 21 -24 21 -19 25 -27 16 -37 -6 -6 -9 -18 -6 -25 8
-21 22 -17 18 6 -2 11 1 22 7 26 6 4 5 10 -3 15 -10 6 -10 9 -2 9 19 0 27 -21
12 -31 -13 -8 -5 -13 16 -9 6 1 4 -4 -2 -11 -7 -7 -13 -17 -13 -22 0 -4 6 -5
13 -1 8 5 8 3 -2 -9 -12 -15 -10 -18 10 -26 18 -7 19 -10 6 -10 -9 -1 -16 -4
-15 -8 3 -9 -5 -13 -24 -13 -6 0 -3 7 8 16 10 8 12 12 4 8 -8 -4 -28 -7 -45
-7 -27 2 -25 -1 14 -13 11 -4 11 -7 0 -22 -7 -9 -10 -14 -5 -10 10 8 36 -14
29 -25 -3 -4 -10 -3 -17 2 -8 7 -12 3 -14 -15 -1 -13 3 -24 8 -24 5 0 6 7 3
17 -4 10 -2 14 4 10 6 -4 16 0 23 8 11 13 10 18 -5 29 -16 11 -14 13 16 13 19
0 28 -2 21 -4 -6 -3 -12 -12 -12 -21 0 -15 2 -15 10 -2 8 13 10 12 10 -4 0
-12 -5 -16 -15 -12 -8 3 -15 1 -15 -4 0 -6 -9 -19 -20 -30 -22 -22 -14 -26 12
-6 10 7 14 17 10 22 -4 4 1 2 11 -5 11 -9 17 -10 17 -2 0 6 5 11 11 11 5 0 8
-4 4 -9 -3 -6 2 -14 11 -19 11 -6 13 -11 5 -16 -6 -4 -11 -2 -11 4 0 6 -5 8
-10 5 -6 -4 -8 -10 -5 -15 3 -5 0 -12 -6 -16 -7 -4 -9 -3 -5 4 3 6 2 13 -4 17
-6 4 -7 12 -3 18 4 7 -1 6 -10 -2 -14 -11 -15 -17 -5 -30 7 -9 13 -17 14 -19
1 -2 12 2 24 8 29 16 57 5 40 -15 -12 -15 -4 -21 23 -16 5 1 6 -3 3 -8 -3 -5
1 -11 9 -15 8 -3 15 -10 15 -16 0 -6 -7 -4 -16 4 -20 21 -35 20 -27 -1 4 -11
3 -14 -6 -9 -7 5 -10 15 -7 23 4 9 2 11 -6 7 -6 -4 -8 -3 -5 3 4 6 0 16 -7 22
-10 8 -16 9 -21 1 -3 -6 -11 -8 -16 -5 -5 4 -6 -2 -2 -11 4 -11 8 -13 11 -6 2
7 8 10 13 6 5 -3 5 -13 -1 -24 -9 -16 -7 -18 11 -15 16 3 19 0 15 -12 -6 -14
-4 -14 18 0 22 15 25 15 30 0 4 -9 4 -18 1 -21 -3 -3 -5 1 -5 8 0 7 -3 11 -6
8 -3 -4 -1 -15 5 -26 6 -11 8 -22 3 -25 -4 -2 -2 -2 5 -1 14 4 85 -51 76 -59
-3 -4 6 -1 20 6 14 7 30 21 35 32 9 19 9 19 16 -2 4 -13 12 -23 17 -23 5 0 9
-6 9 -12 -1 -8 -8 -5 -18 7 -17 20 -17 20 -39 -2 -12 -13 -17 -23 -10 -23 7 0
8 -3 2 -8 -5 -4 -11 -14 -12 -22 -2 -9 4 -6 13 7 19 26 42 30 50 8 5 -11 10
-12 26 -4 17 9 19 8 13 -10 -4 -13 -2 -21 5 -21 6 0 8 5 5 10 -3 6 -2 10 4 10
5 0 13 -5 16 -11 4 -6 13 -8 21 -5 19 7 18 -4 -3 -33 -9 -14 -11 -21 -5 -17 7
4 20 22 29 39 12 23 18 28 21 15 2 -9 11 -19 20 -23 14 -5 15 -4 5 6 -7 7 -13
17 -13 23 0 6 5 5 11 -1 6 -6 19 -9 28 -6 14 4 14 3 1 -6 -8 -5 -11 -13 -7
-18 10 -9 28 18 20 30 -3 5 0 7 8 5 8 -3 13 -10 12 -16 -3 -15 25 -23 33 -10
5 7 2 8 -6 3 -8 -5 -11 -3 -8 6 3 8 11 13 17 11 7 -1 10 2 7 7 -4 5 -15 8 -26
6 -12 -2 -18 0 -14 6 3 6 -8 4 -24 -5 -17 -9 -33 -12 -36 -7 -5 7 -41 8 -41 1
0 -1 -9 -3 -21 -5 -13 -3 -21 1 -21 10 0 10 7 13 24 9 29 -8 30 4 1 16 -23 9
-23 9 2 7 14 -1 30 -6 37 -10 7 -4 16 0 21 9 8 15 10 15 15 0 4 -10 3 -14 -2
-11 -5 3 -12 1 -16 -5 -3 -5 3 -10 14 -10 13 0 21 7 21 18 0 10 3 13 8 7 4 -6
14 -10 22 -10 8 1 20 -3 27 -8 7 -5 17 -6 23 -2 5 3 10 1 10 -4 0 -6 3 -10 8
-10 22 4 42 -2 37 -11 -3 -5 0 -8 7 -5 7 3 49 -1 93 -9 91 -17 292 -15 370 3
229 53 430 179 576 361 76 94 164 288 184 405 12 65 14 255 4 320 -12 85 -14
90 -48 189 -16 49 -27 94 -24 99 3 6 1 7 -5 3 -11 -7 -14 -3 -16 27 -1 6 -8
17 -16 23 -8 7 -14 28 -14 52 0 26 -5 43 -13 47 -9 3 -11 10 -6 17 12 20 12
38 1 38 -6 0 -7 -7 -4 -16 3 -8 2 -12 -4 -9 -5 3 -7 -4 -5 -15 2 -11 0 -20 -5
-20 -12 0 -23 30 -25 65 -1 24 3 31 17 32 22 2 62 -33 53 -46 -14 -24 70 12
118 50 73 58 83 77 64 116 -34 65 -38 63 -187 -60 -33 -27 -44 -31 -37 -14 9
24 0 21 -14 -4 -8 -15 -8 -19 0 -15 6 4 11 3 11 -3 0 -5 -5 -13 -10 -16 -14
-9 -24 21 -15 43 13 29 14 42 3 49 -7 3 -8 1 -4 -5 4 -7 1 -13 -6 -13 -7 -1
-20 -2 -28 -3 -8 -1 -20 3 -27 7 -7 5 -18 5 -24 1 -8 -5 -9 -3 -4 6 6 10 3 12
-11 7 -18 -7 -18 -7 0 8 11 8 25 15 30 15 6 0 5 -4 -2 -9 -11 -7 -10 -10 3
-15 22 -8 35 1 34 22 -1 15 -2 15 -6 0 -2 -10 -9 -18 -14 -18 -6 0 -8 4 -4 9
3 6 -4 15 -16 22 l-22 12 24 13 c13 7 18 13 10 14 -11 0 -9 5 5 23 l19 22 -22
-19 c-13 -10 -20 -23 -17 -27 5 -8 -10 -13 -29 -10 -5 1 -6 -3 -2 -9 3 -5 1
-10 -4 -10 -6 0 -11 -5 -11 -11 0 -8 4 -8 14 0 8 7 16 8 19 4 3 -5 -5 -13 -18
-20 -17 -8 -24 -8 -22 0 1 6 -3 11 -10 12 -6 0 -15 4 -20 9 -5 5 -3 6 5 2 6
-4 12 -2 12 4 0 6 4 9 9 6 17 -11 22 26 5 39 -12 8 -14 14 -6 19 7 4 12 2 12
-5 0 -7 3 -10 6 -6 3 3 3 11 -1 17 -5 8 -10 8 -20 0 -23 -19 -35 -3 -24 30 15
42 33 54 58 38 12 -7 19 -19 16 -25 -3 -10 0 -10 15 -1 13 8 16 16 10 24 -6 6
-6 14 -2 18 4 4 3 7 -3 6 -29 -6 -46 1 -43 18 2 9 9 16 16 15 6 -2 9 3 6 11
-3 7 2 18 10 25 13 11 21 9 45 -8 32 -23 41 -26 41 -12 0 4 -19 21 -41 37
l-41 28 -19 -24 c-11 -14 -23 -29 -27 -35 -4 -5 -18 -27 -31 -48 -12 -20 -27
-35 -32 -32 -5 4 -17 1 -26 -5 -15 -9 -14 -10 6 -4 17 4 22 2 19 -7 -3 -8 -20
-14 -41 -15 -33 -1 -36 1 -25 15 12 14 11 14 -5 2 -16 -13 -18 -12 -13 12 3
15 0 27 -5 27 -5 0 -9 -6 -8 -12 3 -28 -2 -35 -23 -33 -34 4 -35 6 -8 16 l25
9 -27 -4 c-34 -4 -61 23 -52 50 6 18 6 18 -10 -1 -16 -20 -16 -19 -12 8 3 15
1 27 -3 27 -4 0 -8 14 -9 30 -2 21 2 30 12 30 26 0 52 66 41 102 -5 13 -70 48
-89 48 -3 0 -12 -26 -21 -57z m78 13 c16 -17 12 -60 -9 -76 -7 -7 -23 -10 -36
-8 -18 2 -22 8 -20 27 10 66 34 87 65 57z m-352 -245 c20 -1 20 -41 -1 -57
-11 -9 -17 -8 -26 4 -8 11 -13 12 -18 4 -4 -7 -2 -12 4 -12 6 0 9 -4 6 -9 -7
-11 13 -9 33 3 11 7 13 5 8 -7 -4 -11 -2 -14 9 -10 7 3 14 0 14 -5 0 -19 -94
-8 -98 11 -2 9 -9 14 -18 10 -7 -3 -11 -9 -8 -14 3 -5 3 -9 0 -9 -3 0 -10 9
-16 20 -9 16 -8 18 5 14 8 -4 15 -1 15 5 0 16 -88 10 -95 -6 -2 -7 -9 -13 -14
-13 -6 0 -8 7 -5 15 5 12 1 13 -25 4 -17 -6 -31 -15 -31 -21 0 -5 -4 -7 -9 -3
-5 3 -12 1 -16 -5 -3 -5 2 -10 11 -10 16 0 12 -14 -4 -15 -14 -1 -127 -39
-132 -44 -3 -4 -23 -12 -44 -20 -57 -20 -150 -78 -134 -84 9 -3 3 -15 -21 -40
-19 -20 -38 -34 -43 -31 -5 4 3 20 19 37 l28 30 -33 -22 c-23 -16 -31 -28 -27
-41 3 -10 1 -21 -5 -25 -18 -11 -11 -23 10 -18 11 3 31 19 45 35 17 20 25 24
25 14 0 -16 16 -22 22 -8 6 15 68 53 68 43 0 -6 -4 -11 -9 -11 -5 0 -23 -12
-40 -26 -17 -14 -35 -23 -40 -19 -5 3 -26 -9 -45 -26 -20 -17 -39 -28 -44 -25
-4 2 -14 0 -22 -5 -12 -8 -11 -9 4 -7 10 2 21 -3 23 -10 3 -7 -1 -10 -11 -6
-11 4 -19 -2 -26 -21 -5 -14 -14 -24 -19 -21 -8 5 -24 -28 -22 -45 0 -4 -7 -6
-17 -5 -11 1 -16 -6 -15 -19 1 -11 0 -14 -3 -7 -4 9 -9 10 -19 2 -19 -15 -27
3 -15 32 9 21 10 20 4 -7 -3 -16 -4 -28 -2 -25 11 13 58 110 53 110 -2 0 -12
-14 -20 -31 -14 -26 -18 -29 -33 -18 -9 8 -14 10 -10 5 4 -5 1 -21 -8 -37 -8
-16 -14 -31 -14 -34 0 -3 -7 -20 -17 -38 -21 -40 -27 -78 -13 -87 7 -4 1 -20
-15 -45 -24 -34 -26 -48 -29 -146 -2 -93 0 -109 13 -109 13 0 13 -2 2 -9 -9
-6 -10 -11 -2 -15 12 -8 15 -37 4 -33 -9 2 -13 -6 -13 -29 0 -8 3 -13 8 -10 4
2 7 -12 8 -32 0 -21 3 -50 7 -65 5 -18 4 -26 -2 -23 -5 4 -16 0 -24 -8 -8 -8
-17 -12 -21 -9 -3 4 -6 2 -6 -4 0 -6 7 -14 16 -17 8 -3 13 -2 10 3 -3 5 4 11
15 14 12 3 18 3 15 0 -3 -4 -1 -12 5 -19 7 -8 7 -14 -1 -19 -6 -4 -9 -3 -8 2
2 4 -2 9 -7 10 -6 1 -9 -5 -9 -13 2 -12 -1 -12 -14 -2 -13 12 -14 10 -3 -10 7
-12 16 -20 20 -18 4 3 8 -1 8 -9 0 -8 -5 -11 -10 -8 -6 4 -8 -1 -4 -11 4 -11
3 -15 -4 -11 -5 4 -8 12 -6 18 2 7 -2 19 -9 28 -23 26 -55 191 -41 208 9 12 9
13 0 7 -10 -5 -13 5 -14 38 -1 25 -2 52 -3 59 -1 6 3 15 9 19 6 5 5 8 -3 8 -8
0 -11 9 -8 23 3 12 7 45 10 72 8 66 18 114 35 158 6 15 9 27 7 27 -9 0 79 169
119 230 61 92 248 270 283 270 5 0 15 7 22 15 7 9 15 13 18 11 3 -3 17 3 31
13 32 23 161 68 251 87 8 2 38 7 65 10 28 3 51 7 52 8 1 1 70 -1 104 -3z m73
-13 c-6 -10 -4 -10 8 0 9 7 19 9 21 5 3 -5 22 -10 43 -11 20 -2 42 -6 48 -10
6 -3 17 -7 24 -8 19 -3 27 -13 18 -21 -4 -4 -11 -1 -16 7 -8 12 -10 12 -10 1
0 -7 -6 -11 -15 -8 -8 4 -17 2 -20 -4 -4 -5 -11 -7 -16 -4 -5 4 -9 1 -9 -6 0
-7 -8 -5 -20 6 -11 10 -18 21 -15 24 4 3 10 -1 16 -9 8 -13 10 -13 19 0 8 12
10 12 10 1 0 -10 3 -11 13 -2 8 6 18 7 22 3 5 -4 6 -2 3 3 -9 15 -94 12 -90
-3 3 -18 -31 -11 -40 8 -6 11 -7 10 -5 -4 1 -11 10 -20 20 -22 26 -3 27 -7 11
-22 -8 -7 -14 -9 -14 -3 0 5 -8 8 -17 6 -10 -1 -12 0 -5 2 10 4 10 8 1 19 -6
7 -15 11 -20 8 -5 -3 -10 0 -10 5 -1 6 -2 17 -3 24 -4 20 4 27 30 27 18 0 23
-4 18 -12z m270 4 c3 -5 -1 -9 -9 -9 -8 0 -15 4 -15 9 0 4 4 8 9 8 6 0 12 -4
15 -8z m166 -36 c0 -2 -7 -7 -16 -10 -8 -3 -12 -2 -9 4 6 10 25 14 25 6z
m-240 -26 c0 -5 -2 -10 -4 -10 -3 0 -8 5 -11 10 -3 6 -1 10 4 10 6 0 11 -4 11
-10z m-485 -20 c-3 -5 -14 -10 -23 -10 -15 0 -15 2 -2 10 20 13 33 13 25 0z
m1195 -100 c0 -17 -110 -102 -124 -97 -10 4 -13 1 -9 -9 8 -21 -14 -17 -38 7
-20 20 -20 22 -3 40 9 10 23 19 31 19 7 0 13 4 13 9 0 4 21 25 47 45 l48 37
17 -22 c10 -11 18 -25 18 -29z m-1380 15 c-7 -8 -20 -15 -29 -15 -11 0 -8 5 9
14 33 19 35 19 20 1z m-50 -20 c0 -11 -62 -35 -72 -29 -7 5 4 13 28 20 21 6
40 12 42 13 1 1 2 -1 2 -4z m1178 -29 c-8 -6 -13 -17 -11 -23 3 -7 0 -13 -7
-13 -6 0 -8 5 -5 10 3 6 -1 10 -10 10 -9 0 -14 -4 -11 -8 3 -5 -1 -9 -9 -9
-11 0 -12 4 -4 14 9 10 6 15 -12 21 -18 7 -11 9 30 9 40 -1 50 -3 39 -11z m-5
-53 c-7 -2 -9 -12 -6 -21 6 -18 5 -17 -14 8 -10 13 -8 16 10 17 12 0 17 -1 10
-4z m-1204 -27 c-2 -2 -15 -9 -29 -15 -24 -11 -24 -11 -6 3 16 13 49 24 35 12z
m1267 -101 c1 -8 -1 -15 -6 -15 -10 0 -20 26 -13 34 8 8 16 -1 19 -19z m-1480
-53 c-17 -16 -18 -16 -5 5 7 12 15 20 18 17 3 -2 -3 -12 -13 -22z m1503 -60
c21 -41 27 -63 20 -74 -6 -11 -6 -19 1 -23 5 -3 10 2 11 12 2 47 57 -146 65
-227 3 -30 7 -69 9 -87 2 -18 0 -35 -6 -39 -6 -3 -6 -10 -1 -17 5 -7 9 -23 8
-37 -2 -20 -16 -119 -21 -140 -14 -69 -35 -131 -66 -197 -32 -68 -42 -81 -59
-78 -12 2 -18 0 -15 -6 4 -5 11 -7 16 -4 22 14 5 -19 -41 -80 -182 -240 -444
-377 -745 -389 -89 -4 -257 19 -263 35 -2 5 -9 6 -14 3 -7 -4 -8 -2 -4 5 6 9
11 9 21 1 9 -7 16 -6 26 7 13 16 12 17 -2 5 -14 -10 -18 -10 -22 1 -3 9 5 13
33 12 27 -1 36 3 33 12 -3 7 -8 11 -12 8 -4 -2 -8 2 -8 10 0 8 5 11 11 8 14
-9 46 -11 42 -4 -2 3 2 12 10 19 10 9 14 9 14 1 0 -9 3 -9 14 0 11 9 15 8 20
-4 3 -9 9 -14 13 -12 5 3 14 -1 21 -9 11 -12 7 -14 -20 -16 -18 0 -42 -1 -53
0 -18 2 -19 1 -2 -9 9 -5 21 -8 25 -5 4 3 33 -1 63 -9 l54 -13 -54 -1 c-30 -1
-52 -4 -49 -7 12 -11 125 -10 161 2 53 19 52 18 50 26 -2 5 3 8 10 8 8 0 28 7
46 16 33 17 34 35 1 29 -30 -6 -24 4 13 20 17 8 26 14 20 15 -18 0 -16 20 2
20 8 0 12 6 9 14 -3 8 0 17 5 21 6 3 9 10 6 14 -2 5 8 8 23 7 18 -1 26 4 24
13 -2 9 3 11 13 7 9 -3 14 -2 11 2 -5 9 63 47 77 44 4 -1 7 2 7 8 0 5 12 16
27 24 24 12 29 12 38 0 8 -12 16 -9 44 16 18 17 35 29 38 27 2 -3 -13 -19 -34
-36 -31 -26 -35 -33 -23 -41 13 -9 11 -13 -9 -29 -14 -10 -32 -16 -40 -13 -9
3 -13 2 -9 -3 9 -10 -29 -45 -49 -45 -7 0 -13 -4 -13 -10 0 -13 6 -13 32 1 11
6 34 12 50 15 29 3 30 2 12 -11 -10 -8 -14 -14 -9 -14 13 0 45 24 45 33 0 4
-4 5 -9 1 -5 -3 -12 -1 -15 4 -3 5 13 21 37 36 23 15 36 22 30 14 -7 -7 -13
-17 -13 -21 0 -15 27 -8 45 12 10 12 25 18 32 15 8 -2 11 0 8 5 -3 6 -3 10 2
10 4 0 19 16 32 36 14 19 30 33 37 30 7 -3 16 0 20 6 4 7 3 8 -4 4 -7 -4 -12
-3 -12 3 0 5 4 11 8 13 13 4 92 123 92 137 0 6 4 11 8 11 4 0 16 25 27 55 12
36 24 55 34 55 10 0 12 3 6 8 -11 7 -14 62 -4 62 12 0 20 66 25 198 4 99 1
145 -10 182 -13 44 -13 50 0 50 12 0 14 10 12 43 -3 35 -6 42 -23 40 -11 -1
-14 0 -7 3 19 9 14 42 -11 77 -12 18 -23 39 -22 47 0 8 -6 14 -12 13 -7 -2
-13 2 -13 7 0 15 11 12 32 -7 24 -21 23 -6 -2 35 -21 33 -24 42 -15 42 3 0 18
-26 34 -58z m-1679 -486 c0 -8 -4 -17 -8 -20 -4 -2 -8 4 -8 15 0 10 4 19 8 19
4 0 8 -6 8 -14z m71 -59 c-10 -9 -11 -8 -5 6 3 10 9 15 12 12 3 -3 0 -11 -7
-18z m-80 -200 c-10 -9 -11 -8 -5 6 3 10 9 15 12 12 3 -3 0 -11 -7 -18z m184
-96 c3 -5 2 -12 -3 -15 -5 -3 -9 1 -9 9 0 17 3 19 12 6z m40 -121 c10 -11 16
-20 13 -20 -3 0 -13 9 -23 20 -10 11 -16 20 -13 20 3 0 13 -9 23 -20z m1130 0
c-10 -11 -23 -20 -29 -20 -6 0 0 9 14 20 32 25 38 25 15 0z m-1185 5 c0 -2
-10 -9 -22 -15 -22 -11 -22 -10 -4 4 21 17 26 19 26 11z m0 -55 c0 -5 -2 -10
-4 -10 -3 0 -8 5 -11 10 -3 6 -1 10 4 10 6 0 11 -4 11 -10z m27 -26 c-3 -3
-12 -4 -19 -1 -8 3 -5 6 6 6 11 1 17 -2 13 -5z m999 -43 c-8 -12 -103 -61
-118 -61 -7 1 1 8 17 17 17 9 30 14 30 12 0 -2 14 6 30 18 31 23 50 30 41 14z
m184 4 c0 -2 -6 -8 -13 -14 -10 -8 -14 -7 -14 2 0 8 6 14 14 14 7 0 13 -1 13
-2z m-1264 -130 c-3 -8 -1 -15 5 -15 6 0 8 -9 4 -21 -6 -17 -4 -20 6 -13 20
12 40 14 33 3 -3 -5 2 -9 10 -9 21 0 20 -14 -1 -31 -14 -12 -16 -12 -8 0 6 10
4 13 -6 9 -21 -8 -81 45 -73 65 3 9 10 14 15 11 5 -3 9 0 9 5 0 6 3 11 6 11 3
0 4 -7 0 -15z m149 -115 c26 10 42 1 42 -23 0 -15 -3 -15 -16 -3 -9 7 -22 11
-29 9 -7 -3 -19 1 -27 7 -8 7 -22 9 -31 6 -14 -6 -15 -4 -4 9 12 14 15 14 28
1 10 -10 22 -12 37 -6z m325 10 c0 -5 -4 -10 -10 -10 -5 0 -10 5 -10 10 0 6 5
10 10 10 6 0 10 -4 10 -10z"/>
<path d="M2470 3410 c-9 -6 -10 -10 -3 -10 6 0 15 5 18 10 8 12 4 12 -15 0z"/>
<path d="M2214 3370 c-6 -6 -24 -12 -41 -13 -36 -2 -66 -27 -34 -27 11 0 23 5
26 11 4 6 13 8 20 5 7 -2 21 4 31 15 18 20 16 27 -2 9z"/>
<path d="M2040 3295 c-17 -10 -20 -14 -9 -15 9 0 22 7 29 15 15 18 12 18 -20
0z"/>
<path d="M1945 3239 c-22 -16 -42 -35 -44 -42 -2 -7 3 -5 12 3 34 31 46 40 56
40 5 0 11 7 15 15 7 19 8 20 -39 -16z"/>
<path d="M1796 3113 c-6 -14 -5 -15 5 -6 7 7 10 15 7 18 -3 3 -9 -2 -12 -12z"/>
<path d="M1839 3113 c-13 -16 -12 -17 4 -4 16 13 21 21 13 21 -2 0 -10 -8 -17
-17z"/>
<path d="M1785 3051 c-3 -5 -1 -12 5 -16 5 -3 10 1 10 9 0 18 -6 21 -15 7z"/>
<path d="M1590 2396 c0 -2 7 -9 15 -16 13 -11 14 -10 9 4 -5 14 -24 23 -24 12z"/>
<path d="M1607 2344 c-4 -4 -3 -12 0 -18 13 -20 12 -36 -2 -36 -8 0 -16 -4
-19 -9 -3 -4 6 -6 19 -3 26 4 35 35 15 47 -6 4 -8 11 -5 16 7 10 2 12 -8 3z"/>
<path d="M3382 2660 c0 -14 2 -19 5 -12 2 6 2 18 0 25 -3 6 -5 1 -5 -13z"/>
<path d="M2945 1860 c-3 -5 -13 -6 -22 -3 -13 5 -15 1 -11 -20 4 -19 -1 -28
-19 -38 -12 -7 -23 -16 -23 -20 0 -10 47 15 80 41 l25 20 -27 -10 c-18 -6 -28
-6 -28 0 0 6 6 10 14 10 8 0 16 7 20 15 6 17 0 20 -9 5z"/>
<path d="M2833 1795 c0 -8 4 -15 9 -15 5 0 6 -5 2 -12 -4 -7 -3 -8 4 -4 9 5 9
13 2 27 -13 23 -17 24 -17 4z"/>
<path d="M2920 1720 c-9 -6 -10 -10 -3 -10 6 0 15 5 18 10 8 12 4 12 -15 0z"/>
<path d="M2833 1678 c-13 -6 -23 -14 -23 -19 0 -4 11 -2 25 4 14 7 25 15 25
20 0 8 1 9 -27 -5z"/>
<path d="M1750 1700 c0 -5 7 -10 16 -10 8 0 12 5 9 10 -3 6 -10 10 -16 10 -5
0 -9 -4 -9 -10z"/>
<path d="M1795 1670 c-3 -5 1 -10 10 -10 9 0 13 5 10 10 -3 6 -8 10 -10 10 -2
0 -7 -4 -10 -10z"/>
<path d="M1806 3592 c-3 -5 20 -50 50 -101 30 -51 54 -97 54 -102 0 -15 19
-10 60 14 22 12 40 28 40 35 0 10 -9 8 -34 -7 -18 -12 -36 -21 -39 -21 -3 0
-31 43 -62 95 -30 52 -57 95 -60 95 -2 0 -6 -4 -9 -8z"/>
<path d="M2810 3541 c0 -6 4 -13 10 -16 6 -3 7 1 4 9 -7 18 -14 21 -14 7z"/>
<path d="M2926 3538 c3 -5 10 -6 15 -3 13 9 11 12 -6 12 -8 0 -12 -4 -9 -9z"/>
<path d="M2730 3521 c0 -6 4 -13 10 -16 6 -3 7 1 4 9 -7 18 -14 21 -14 7z"/>
<path d="M2613 3495 c0 -8 4 -12 9 -9 5 3 6 10 3 15 -9 13 -12 11 -12 -6z"/>
<path d="M2800 3500 c-9 -6 -10 -10 -3 -10 6 0 15 5 18 10 8 12 4 12 -15 0z"/>
<path d="M2993 3495 c0 -8 4 -12 9 -9 5 3 6 10 3 15 -9 13 -12 11 -12 -6z"/>
<path d="M3055 3501 c-3 -5 -2 -12 3 -15 5 -3 9 1 9 9 0 17 -3 19 -12 6z"/>
<path d="M2836 3475 c4 -8 8 -15 10 -15 2 0 4 7 4 15 0 8 -4 15 -10 15 -5 0
-7 -7 -4 -15z"/>
<path d="M2700 3466 c0 -7 40 -14 44 -7 3 4 -6 8 -20 9 -13 1 -24 0 -24 -2z"/>
<path d="M2817 3463 c-4 -3 -7 -13 -7 -22 1 -13 3 -13 11 2 11 19 8 33 -4 20z"/>
<path d="M3136 3433 c-6 -14 -5 -15 5 -6 7 7 10 15 7 18 -3 3 -9 -2 -12 -12z"/>
<path d="M1551 3388 c-17 -18 -31 -36 -31 -39 0 -3 37 -43 82 -87 l83 -81 37
36 c20 20 35 40 31 45 -3 6 -19 -4 -37 -20 l-31 -30 -32 32 -32 33 27 26 c35
35 20 48 -16 14 l-28 -27 -28 29 c-24 26 -26 31 -14 50 7 11 16 21 19 21 4 0
9 7 13 15 9 25 -11 17 -43 -17z"/>
<path d="M3125 3400 c-3 -6 1 -7 9 -4 18 7 21 14 7 14 -6 0 -13 -4 -16 -10z"/>
<path d="M3256 3378 c3 -5 10 -6 15 -3 13 9 11 12 -6 12 -8 0 -12 -4 -9 -9z"/>
<path d="M3046 3366 c10 -8 21 -12 24 -10 5 6 -21 24 -34 24 -6 0 -1 -6 10
-14z"/>
<path d="M3230 3356 c0 -2 8 -10 18 -17 15 -13 16 -12 3 4 -13 16 -21 21 -21
13z"/>
<path d="M3220 3320 c-12 -7 -10 -9 7 -7 12 0 19 5 17 9 -6 10 -6 10 -24 -2z"/>
<path d="M1790 3255 c0 -8 2 -15 4 -15 2 0 6 7 10 15 3 8 1 15 -4 15 -6 0 -10
-7 -10 -15z"/>
<path d="M3294 3148 c-12 -19 -15 -46 -5 -52 4 -3 8 5 7 17 -1 12 3 25 8 29 6
4 8 10 4 13 -3 4 -10 0 -14 -7z"/>
<path d="M1340 3108 c0 -7 39 -33 88 -58 93 -48 114 -77 73 -100 -17 -9 -36
-3 -111 35 -97 49 -100 50 -100 35 0 -12 173 -100 198 -100 45 0 69 72 35 102
-32 29 -183 99 -183 86z"/>
<path d="M3670 3015 c8 -10 4 -15 -20 -23 -16 -6 -30 -8 -30 -4 0 4 -4 2 -8
-5 -4 -6 -34 -22 -66 -35 -63 -25 -91 -55 -40 -42 21 5 25 4 19 -6 -5 -9 -4
-11 4 -6 6 4 9 11 6 16 -5 9 18 20 41 20 8 0 14 -6 14 -13 0 -34 71 -65 91
-41 6 8 17 14 24 14 39 0 20 107 -22 127 -20 10 -22 9 -13 -2z m34 -57 c9 -34
9 -34 -28 -52 -44 -21 -43 -21 -60 11 -13 27 -13 28 23 44 49 23 58 23 65 -3z"/>
<path d="M3431 2833 c-1 -17 16 -25 25 -12 4 7 3 9 -4 5 -5 -3 -13 0 -15 6 -4
9 -6 10 -6 1z"/>
<path d="M3605 2771 c-3 -5 -2 -12 3 -15 5 -3 9 1 9 9 0 17 -3 19 -12 6z"/>
<path d="M3693 2765 c0 -8 4 -12 9 -9 5 3 6 10 3 15 -9 13 -12 11 -12 -6z"/>
<path d="M1205 2733 c-25 -24 -23 -80 3 -99 22 -16 164 -38 189 -30 20 7 40
41 37 64 -1 6 -2 19 -3 27 0 8 -8 15 -16 15 -11 0 -12 -5 -5 -24 7 -19 5 -30
-8 -46 -16 -20 -20 -20 -92 -9 -87 14 -102 23 -98 58 2 20 8 26 26 25 12 0 22
5 22 12 0 18 -39 24 -55 7z"/>
<path d="M3553 2725 c0 -8 4 -15 9 -15 4 0 8 7 8 15 0 8 -4 15 -8 15 -5 0 -9
-7 -9 -15z"/>
<path d="M3612 2695 c0 -16 2 -22 5 -12 2 9 2 23 0 30 -3 6 -5 -1 -5 -18z"/>
<path d="M3733 2671 c0 -11 5 -18 9 -15 4 3 5 11 1 19 -7 21 -12 19 -10 -4z"/>
<path d="M3546 2638 c3 -5 10 -6 15 -3 13 9 11 12 -6 12 -8 0 -12 -4 -9 -9z"/>
<path d="M3800 2646 c-3 -2 -32 -7 -65 -11 -33 -3 -75 -8 -94 -11 -25 -4 -32
-2 -26 8 3 7 1 6 -7 -3 -7 -9 -19 -14 -25 -12 -7 3 -13 -3 -13 -12 0 -17 5
-17 159 5 81 11 85 13 79 30 -2 6 -6 9 -8 6z"/>
<path d="M3531 2484 c0 -11 3 -14 6 -6 3 7 2 16 -1 19 -3 4 -6 -2 -5 -13z"/>
<path d="M3555 2449 c-4 -6 -5 -12 -2 -15 2 -3 7 2 10 11 7 17 1 20 -8 4z"/>
<path d="M3735 2390 c3 -5 8 -10 11 -10 2 0 4 5 4 10 0 6 -5 10 -11 10 -5 0
-7 -4 -4 -10z"/>
<path d="M1349 2382 c-18 -2 -34 -17 -54 -49 -34 -52 -73 -73 -91 -48 -16 22
-6 55 17 55 11 0 19 5 19 10 0 16 -37 12 -55 -6 -30 -31 2 -94 48 -94 18 0 45
25 94 84 27 33 61 34 69 2 3 -13 1 -33 -5 -44 -13 -25 2 -38 19 -17 14 17 20
86 8 78 -5 -2 -8 0 -8 6 0 15 -31 27 -61 23z"/>
<path d="M3577 2349 c-10 -37 -8 -89 3 -89 6 0 11 14 11 30 1 17 2 34 3 39 1
13 16 26 16 15 0 -5 19 -9 43 -9 23 0 70 -3 105 -7 39 -5 62 -4 62 3 0 13 -14
17 -75 23 -27 3 -75 8 -106 11 -53 7 -56 6 -62 -16z"/>
<path d="M1515 2280 c-3 -5 -1 -10 4 -10 6 0 11 5 11 10 0 6 -2 10 -4 10 -3 0
-8 -4 -11 -10z"/>
<path d="M3515 2280 c-3 -6 1 -7 9 -4 18 7 21 14 7 14 -6 0 -13 -4 -16 -10z"/>
<path d="M1535 2211 c-6 -11 13 -26 22 -17 4 3 1 6 -6 6 -7 0 -9 5 -6 10 3 6
4 10 1 10 -3 0 -7 -4 -11 -9z"/>
<path d="M1534 2161 c0 -19 31 -18 43 2 3 6 1 7 -6 3 -6 -4 -17 -3 -24 3 -9 7
-13 5 -13 -8z"/>
<path d="M1446 2122 c-3 -5 1 -9 9 -9 8 0 12 4 9 9 -3 4 -7 8 -9 8 -2 0 -6 -4
-9 -8z"/>
<path d="M3733 2105 c0 -8 4 -12 9 -9 5 3 6 10 3 15 -9 13 -12 11 -12 -6z"/>
<path d="M1549 2098 c7 -9 9 -23 5 -30 -6 -10 -4 -11 7 0 11 10 10 15 -6 30
-17 15 -18 15 -6 0z"/>
<path d="M1461 2063 c16 -42 19 -63 8 -64 -18 -3 -24 -5 -46 -17 -21 -11 -24
-10 -38 23 -8 20 -19 34 -24 31 -6 -4 -4 -19 4 -40 14 -33 14 -33 -21 -50 -41
-19 -47 -17 -64 24 -7 16 -16 30 -21 30 -5 0 -9 -2 -9 -4 0 -9 39 -96 43 -96
5 0 78 31 135 56 18 9 41 16 52 17 10 1 16 5 14 9 -4 7 25 13 48 9 8 -1 4 26
-6 36 -4 4 -6 2 -4 -6 2 -7 -3 -16 -11 -19 -10 -3 -12 0 -8 12 4 9 2 15 -5 13
-7 -1 -14 7 -16 18 -5 23 -21 45 -33 45 -5 0 -4 -12 2 -27z"/>
<path d="M3502 2048 c-29 -65 -32 -78 -21 -78 5 0 14 11 19 24 5 13 14 27 20
31 5 3 8 11 5 16 -3 5 1 6 9 3 9 -3 13 -11 9 -17 -3 -5 -1 -7 4 -4 6 4 48 -9
94 -27 58 -24 86 -31 91 -23 4 7 -14 20 -50 34 -109 45 -151 66 -146 75 3 4 1
8 -5 8 -6 0 -19 -19 -29 -42z"/>
<path d="M1542 2044 c10 -10 20 -15 24 -12 3 4 -5 12 -18 18 -22 12 -22 12 -6
-6z"/>
<path d="M1565 2009 c-7 -11 -7 -11 21 -14 11 -1 21 3 21 9 0 14 -34 18 -42 5z"/>
<path d="M1516 1938 c3 -5 10 -6 15 -3 13 9 11 12 -6 12 -8 0 -12 -4 -9 -9z"/>
<path d="M3451 1924 c0 -11 3 -14 6 -6 3 7 2 16 -1 19 -3 4 -6 -2 -5 -13z"/>
<path d="M1510 1916 c0 -2 8 -10 18 -17 15 -13 16 -12 3 4 -13 16 -21 21 -21
13z"/>
<path d="M1546 1838 c3 -4 9 -8 15 -8 5 0 9 4 9 8 0 5 -7 9 -15 9 -8 0 -12 -4
-9 -9z"/>
<path d="M1595 1821 c-6 -11 13 -26 22 -17 4 3 1 6 -6 6 -7 0 -9 5 -6 10 3 6
4 10 1 10 -3 0 -7 -4 -11 -9z"/>
<path d="M1675 1810 c4 -6 11 -8 16 -5 14 9 11 15 -7 15 -8 0 -12 -5 -9 -10z"/>
<path d="M1620 1772 c6 -12 8 -28 4 -34 -4 -7 -3 -8 4 -4 16 10 15 18 -4 42
-14 18 -15 18 -4 -4z"/>
<path d="M1699 1715 c-1 -3 -2 -8 -3 -12 -1 -5 -4 -13 -8 -19 -4 -6 -1 -11 7
-11 8 0 12 4 9 8 -2 4 2 10 8 12 10 4 10 6 0 6 -7 1 -10 6 -7 11 3 6 4 10 1
10 -3 0 -7 -2 -7 -5z"/>
<path d="M1639 1693 c-13 -16 -12 -17 4 -4 9 7 17 15 17 17 0 8 -8 3 -21 -13z"/>
<path d="M1724 1642 c11 -12 20 -22 20 -22 1 0 2 10 3 23 0 12 -1 16 -4 9 -4
-10 -8 -10 -21 0 -12 9 -11 6 2 -10z"/>
<path d="M1769 1636 c9 -11 8 -15 -6 -21 -10 -5 -22 -7 -28 -6 -5 2 -6 -1 -2
-5 11 -11 38 -14 31 -3 -5 9 10 13 31 9 5 -1 1 8 -9 19 -21 23 -35 29 -17 7z"/>
<path d="M1709 1597 c6 -8 7 -18 3 -22 -4 -5 -1 -5 6 -1 10 6 10 11 1 22 -6 8
-14 14 -16 14 -3 0 0 -6 6 -13z"/>
<path d="M1864 1579 c-4 -8 -3 -10 5 -5 8 5 10 0 7 -17 -2 -13 -1 -30 4 -37 5
-7 7 2 6 23 -1 40 -10 54 -22 36z"/>
<path d="M2167 1556 c-3 -7 2 -12 11 -11 23 1 31 18 10 21 -9 1 -19 -3 -21
-10z"/>
<path d="M1953 1525 c0 -8 4 -12 9 -9 4 3 8 9 8 15 0 5 -4 9 -8 9 -5 0 -9 -7
-9 -15z"/>
<path d="M2010 1520 c0 -5 5 -10 10 -10 6 0 10 5 10 10 0 6 -4 10 -10 10 -5 0
-10 -4 -10 -10z"/>
<path d="M2096 1514 c-5 -14 -4 -15 9 -4 17 14 19 20 6 20 -5 0 -12 -7 -15
-16z"/>
<path d="M2153 1515 c0 -8 4 -12 9 -9 5 3 6 10 3 15 -9 13 -12 11 -12 -6z"/>
<path d="M2015 1491 c-3 -5 -2 -12 3 -15 5 -3 9 1 9 9 0 17 -3 19 -12 6z"/>
<path d="M2310 1369 c0 -21 1 -21 13 -5 13 17 47 13 47 -5 0 -13 -31 -60 -57
-87 -29 -30 -29 -42 1 -42 13 0 31 -3 40 -6 9 -3 16 -1 16 5 0 6 -14 11 -31
11 l-30 0 36 44 c48 58 47 99 -2 104 -28 3 -33 0 -33 -19z"/>
<path d="M2714 1384 c-13 -5 -7 -44 7 -44 5 0 6 6 3 14 -7 18 9 28 30 20 22
-9 20 -33 -9 -90 -30 -58 -30 -63 -7 -59 9 2 30 4 45 4 16 1 25 5 22 11 -3 5
-20 6 -38 3 -27 -5 -30 -4 -21 8 23 30 42 94 33 117 -8 21 -36 28 -65 16z"/>
<path d="M2458 1368 c-19 -15 -31 -114 -17 -140 11 -21 42 -24 57 -5 18 21 21
126 5 143 -18 17 -25 18 -45 2z m39 -69 c-4 -58 -19 -85 -40 -72 -7 4 -5 90 3
131 0 1 9 2 21 2 19 0 20 -5 16 -61z"/>
<path d="M2583 1373 c-15 -6 -17 -43 -3 -43 6 0 10 6 10 14 0 15 24 28 34 19
14 -15 4 -58 -23 -99 -17 -24 -26 -46 -21 -49 13 -8 71 -2 77 8 3 5 -5 8 -18
7 -40 -4 -41 -1 -14 43 14 24 25 53 25 63 0 35 -31 52 -67 37z"/>
</g>
</svg>
